<?xml version="1.0" standalone="no"?><!DOCTYPE svg PUBLIC "-//W3C//DTD SVG 1.1//EN" "http://www.w3.org/Graphics/SVG/1.1/DTD/svg11.dtd"><svg t="1639051191145" class="icon" viewBox="0 0 1024 1024" version="1.1" xmlns="http://www.w3.org/2000/svg" p-id="1685" xmlns:xlink="http://www.w3.org/1999/xlink" width="200" height="200"><defs><style type="text/css"></style></defs><path d="M729.21 494.944c-16.293-0.554-31.987 0.427-46.616 2.73 4.095-32.456 17.827-72.375 66.404-70.711 53.865 1.833 61.371 51.562 61.542 85.254-22.689-9.937-50.752-16.206-81.33-17.273m186.032-316.452c-7.634-40.815-31.816-60.987-53.694-68.835-23.585-8.572-71.437-17.486-131.528-24.565-48.364-5.715-105.215-5.246-139.547-4.223-4.137-28.318-23.883-54.163-46.06-63.12C485.387-6.134 394.162-0.376 370.79 6.234c-18.595 5.16-39.237 15.908-50.71 32.37-7.676 11.004-12.624 25.163-12.666 44.824 0 11.174 0.341 37.446 0.597 60.775 0.256 23.456 0.597 44.354 0.597 44.525a37.83 37.83 0 0 1-37.744 37.872h-95.66c-20.43 0-36.039 3.411-47.938 8.828-11.941 5.501-20.386 12.794-26.826 21.495-12.794 17.23-14.97 38.469-14.927 60.134 0 0 0.213 17.785 4.478 52.031 3.54 26.57 32.2 212.05 59.452 268.473 10.535 21.922 17.572 31.091 38.299 40.73 46.23 19.917 151.829 42.008 201.301 48.32 49.473 6.355 80.435 19.704 98.945-19.191 0.042-0.128 3.668-9.724 8.658-23.756 16.078-48.79 18.338-92.12 18.338-123.425 0-3.198 4.606-3.326 4.606 0 0 22.092-4.18 100.395 54.719 121.42 23.243 8.275 71.479 15.653 120.482 21.41 44.354 5.118 76.511 22.604 76.511 136.774 0 69.475-14.5 78.986-90.5 78.986-61.584 0-85.041 1.62-85.041-47.51 0-39.664 39.109-35.527 68.067-35.527 12.965 0 3.582-9.639 3.582-34.162 0-24.352 15.14-38.426 0.853-38.81-100.266-2.772-159.25-0.128-159.25 125.728 0 114.256 43.545 135.452 185.778 135.452 111.568 0 150.848-3.668 196.908-147.138 9.084-28.318 31.134-114.724 44.483-259.815 8.444-91.737-7.933-368.654-20.94-438.555m-724.216 20.386h87.003a9.084 9.084 0 0 0 8.999-9.084s-1.024-75.232-1.024-96.13v-0.256c0-17.187 3.54-32.157 9.81-44.696l2.942-5.63c-0.341 0-0.682 0.214-1.023 0.513L128.803 212.696a1.962 1.962 0 0 0-0.64 0.981c3.497-1.749 8.274-4.137 8.956-4.393 14.714-6.738 32.54-10.406 53.908-10.406" fill="#2DBE60" p-id="1686"></path></svg>